PathFileType	4	(X/Y/Z)	RUN4																																																													
DataRate	CameraRate	NumFrames	NumMarkers	Units	OrigDataRate	OrigDataStartFrame	OrigNumFrames																																																									
72	72	8	21	mm	72	1	854																																																									
Frame#	Time	Hand_Start			Hand_Thumb1			Hand_Thumb2			Hand_Thumb3			Hand_Index1			Hand_Index2			Hand_Index3			Hand_Middle1			Hand_Middle2			Hand_Middle3			Hand_Ring1			Hand_Ring2			Hand_Ring3			Hand_Pinky1			Hand_Pinky2			Hand_Pinky3			Hand_ThumbTip			Hand_IndexTip			Hand_MiddleTip			Hand_RingTip			Hand_PinkyTip		
		X1	Y1	Z1	X2	Y2	Z2	X3	Y3	Z3	X4	Y4	Z4	X5	Y5	Z5	X6	Y6	Z6	X7	Y7	Z7	X8	Y8	Z8	X9	Y9	Z9	X10	Y10	Z10	X11	Y11	Z11	X12	Y12	Z12	X13	Y13	Z13	X14	Y14	Z14	X15	Y15	Z15	X16	Y16	Z16	X17	Y17	Z17	X18	Y18	Z18	X19	Y19	Z19	X20	Y20	Z20	X21	Y21	Z21
																																																																
1	0	917.6086	-37.85408	102.6736	944.3976	-23.37909	61.11374	960.8197	-26.40498	32.23442	983.0552	-29.92833	5.864203	1001.648	0.08034706	59.77853	1021.015	-9.41813	27.38924	1021.919	-21.0712	5.361639	1008.924	-17.01057	73.21448	1013.96	-34.37638	33.05219	986.4756	-40.84575	34.38956	1007.674	-37.35501	79.5304	1008.112	-51.54145	42.12079	980.9581	-53.80023	43.10827	1001.728	-58.61831	83.39768	1005.439	-64.44782	52.64413	984.6526	-62.95747	52.67967	997.9063	-34.26677	-14.10621	1021.692	-33.44178	-13.99361	975.2131	-30.20883	54.82487	970.6069	-44.42239	63.86108	973.3266	-54.42947	70.18854
2	0.013888889	917.7742	-37.77617	102.629	944.3182	-22.90905	61.0458	960.4987	-25.71523	32.00838	982.3463	-28.66364	5.246431	1001.46	0.7964373	59.61169	1020.883	-8.379459	27.16272	1023.076	-19.56904	4.985817	1008.886	-16.23678	73.03891	1014.298	-33.47635	32.87127	986.8816	-40.25817	34.02714	1007.8	-36.5895	79.35844	1008.476	-50.73285	41.93617	981.3446	-53.24233	42.92347	1002.023	-57.89733	83.23614	1006.52	-63.64495	52.57216	985.7225	-62.30885	52.40889	996.9069	-32.56774	-15.0255	1024.887	-31.3201	-14.66957	975.324	-29.82163	54.40088	971.0175	-43.94323	63.72376	974.3388	-53.87616	69.92644
3	0.027777778	917.5381	-37.94456	102.7108	944.3806	-23.36854	61.21124	960.4571	-26.40063	32.13876	981.9434	-29.11037	5.060453	1001.774	-0.2823472	59.96205	1021.779	-9.490907	27.87779	1026.12	-20.09255	5.728699	1008.998	-17.21984	73.6185	1015.268	-34.70683	33.68318	987.8313	-41.47255	34.35233	1007.747	-37.50092	80.13483	1008.955	-51.94604	42.84141	981.8079	-54.35503	43.64561	1001.819	-58.73543	84.18238	1007.596	-64.7369	53.78278	986.8159	-63.25865	53.22877	996.2224	-32.8241	-15.44576	1031.128	-30.87741	-13.92618	975.8182	-30.93404	54.40743	971.5779	-44.77262	64.36502	975.4817	-54.58754	70.66182
4	0.041666667	916.743	-38.55288	102.9323	944.2062	-24.8636	61.53879	960.637	-28.46682	32.73052	982.5214	-31.92544	6.059859	1001.869	-2.437711	60.61328	1022.764	-12.08353	29.2327	1027.78	-22.80283	7.283732	1008.739	-19.33467	74.50125	1015.446	-37.19032	34.80064	987.9009	-43.49715	35.52952	1007.156	-39.53218	81.20213	1008.485	-54.3474	44.05833	981.3043	-56.35196	44.82966	1000.906	-60.64504	85.40002	1005.975	-67.04265	54.95489	985.211	-65.28872	54.63623	997.0882	-36.19015	-14.13457	1033.423	-33.68664	-12.1434	976.123	-32.49586	55.47538	971.2325	-46.39405	65.44915	974.1529	-56.28824	72.07987
5	0.055555556	916.2022	-38.62911	103.2669	943.2907	-24.16551	61.88972	959.3856	-27.25005	32.8327	980.9793	-30.29108	5.875714	1001.014	-1.900792	60.84445	1022.267	-11.14881	29.58529	1027.615	-21.39902	7.490732	1007.969	-19.09888	74.31357	1014.413	-36.13627	34.21195	986.8464	-42.33724	35.01571	1006.39	-39.42496	80.6151	1007.258	-53.50941	43.17456	980.075	-55.41623	44.08895	1000.117	-60.60117	84.44212	1004.273	-66.42801	53.74496	983.5094	-64.64112	53.70216	995.3114	-34.22123	-14.5529	1033.566	-31.87001	-12.07062	975.279	-31.68881	55.27379	970.1564	-45.84104	64.9625	972.5248	-55.96745	71.35649
6	0.069444444	915.8973	-38.52791	103.7637	942.3449	-22.84402	62.41338	958.0259	-25.00576	33.04864	979.1399	-26.93325	5.613282	999.9247	-0.2288222	61.1698	1021.455	-8.70949	29.88249	1027.218	-18.40407	7.642172	1007.179	-17.58903	74.26777	1013.958	-33.72985	33.85177	986.466	-40.26914	34.5151	1005.861	-38.03629	80.22776	1006.685	-51.4462	42.53934	979.526	-53.58094	43.64706	999.8318	-59.33702	83.74421	1003.786	-64.60351	52.91967	983.0068	-63.01886	52.99623	993.089	-29.99181	-15.22581	1033.677	-28.32431	-12.04486	974.7756	-30.14964	54.97299	969.7552	-44.43437	64.78093	971.9948	-54.75426	70.82879
7	0.083333333	915.5167	-38.48553	104.2786	942.0592	-22.30853	63.1787	957.7627	-24.0913	33.8005	978.8598	-25.58893	6.325342	999.6744	0.2322793	62.32478	1021.712	-7.926643	31.30624	1027.942	-17.32987	9.06691	1006.89	-17.24845	75.28318	1013.942	-32.98515	34.75466	986.4385	-39.4879	35.29797	1005.558	-37.75108	81.04651	1006.541	-50.81123	43.2393	979.3767	-52.91218	44.28846	999.523	-59.08531	84.34298	1003.476	-64.07201	53.47142	982.6949	-62.49702	53.48968	992.7791	-28.29868	-14.58171	1034.89	-26.96389	-10.59568	974.7217	-29.52904	55.81939	969.6038	-43.9356	65.49418	971.5909	-54.40009	71.34204
8	0.097222222	915.1533	-38.5341	104.5468	941.4925	-21.83038	63.52606	956.9812	-23.19866	34.01189	977.8229	-24.20515	6.32029	999.1614	0.5707145	62.65187	1021.838	-7.139742	31.9818	1028.675	-16.15304	9.759143	1006.421	-17.03995	75.40817	1013.482	-32.35525	34.72016	985.9642	-38.79189	35.31465	1005.103	-37.59837	80.97307	1006.024	-50.27884	43.0352	978.8624	-52.30618	44.27486	999.0739	-58.96229	84.08116	1003.055	-63.65275	53.16708	982.2762	-62.05368	53.18628	991.5159	-26.49957	-14.78472	1036.294	-25.39068	-9.845197	974.3626	-28.99259	55.97762	969.2969	-43.49393	65.64362	971.1879	-54.1172	71.12034
